<?xml version="1.0" encoding="utf-8"?>
<!-- Generator: Adobe Illustrator 22.1.0, SVG Export Plug-In . SVG Version: 6.00 Build 0)  -->
<svg version="1.1" id="layer" xmlns="http://www.w3.org/2000/svg" xmlns:xlink="http://www.w3.org/1999/xlink" x="0px" y="0px"
	 viewBox="0 0 800 1036" style="enable-background:new 0 0 800 1036;" xml:space="preserve">
<path d="M614.1,435.5c0.1,0,0.2,0,0.4,0c-0.5-0.8-1.1-1.7-1.6-2.5c-23.1,0-67.7,0-80.9,0c-18,0-56,4-69,9s-150,53-162,57
	s-82,27-101,38s-33,28-38,47c-2.9,11,0.2,25.9,3.4,36.6c2.2,3.7,4.6,7.3,7.1,11c0.5,0.8,1,1.6,1.5,2.4c0,0,5,10,12,13s42-3,43-2
	c-9-8-14-11-14-11s81-38,87-40s134-48,143-52s30-12,38-14s118-8,152-6C637.8,488.4,616.2,440.8,614.1,435.5z M458.1,448.2
	c2.8-0.9,5.8-1.7,8.9-2.6C464.3,446.4,461.3,447.3,458.1,448.2z"/>
<path d="M162,584c5-19,19-36,38-47s89-34,101-38s149-52,162-57s51-9,69-9c13.2,0,57.8,0,80.9,0c-60.5-94.6-64.4-154.7-64.4-173.5
	c-7-3-40,6-54,16c-30,109-82,124-145,135s-102.5-1.5-112-36c-56,15-82,77-82,77c-19.6,90.9-11.5,128.5,9.9,169.1
	C162.2,609.9,159.1,595,162,584z"/>
</svg>
